<svg width="20" height="21" viewBox="0 0 20 21" fill="none" xmlns="http://www.w3.org/2000/svg">
<path d="M14.1666 18.2083H5.83329C5.49163 18.2083 5.20829 17.925 5.20829 17.5833C5.20829 17.2417 5.49163 16.9583 5.83329 16.9583H14.1666C16.55 16.9583 17.7083 15.8 17.7083 13.4167V7.58333C17.7083 5.2 16.55 4.04167 14.1666 4.04167H5.83329C3.44996 4.04167 2.29163 5.2 2.29163 7.58333C2.29163 7.925 2.00829 8.20833 1.66663 8.20833C1.32496 8.20833 1.04163 7.925 1.04163 7.58333C1.04163 4.54167 2.79163 2.79167 5.83329 2.79167H14.1666C17.2083 2.79167 18.9583 4.54167 18.9583 7.58333V13.4167C18.9583 16.4583 17.2083 18.2083 14.1666 18.2083Z" fill="#7653F6"/>
<path d="M9.99986 11.225C9.29986 11.225 8.59152 11.0083 8.04986 10.5666L5.44152 8.48331C5.17485 8.26664 5.12486 7.87497 5.34153 7.60831C5.55819 7.34164 5.94985 7.29164 6.21652 7.50831L8.82485 9.59164C9.45819 10.1 10.5332 10.1 11.1665 9.59164L13.7749 7.50831C14.0415 7.29164 14.4415 7.33331 14.6498 7.60831C14.8665 7.87497 14.8248 8.27498 14.5498 8.48331L11.9415 10.5666C11.4082 11.0083 10.6999 11.225 9.99986 11.225Z" fill="#7653F6"/>
<path d="M6.66663 14.875H1.66663C1.32496 14.875 1.04163 14.5917 1.04163 14.25C1.04163 13.9083 1.32496 13.625 1.66663 13.625H6.66663C7.00829 13.625 7.29163 13.9083 7.29163 14.25C7.29163 14.5917 7.00829 14.875 6.66663 14.875Z" fill="#7653F6"/>
<path d="M4.16663 11.5417H1.66663C1.32496 11.5417 1.04163 11.2583 1.04163 10.9167C1.04163 10.575 1.32496 10.2917 1.66663 10.2917H4.16663C4.50829 10.2917 4.79163 10.575 4.79163 10.9167C4.79163 11.2583 4.50829 11.5417 4.16663 11.5417Z" fill="#7653F6"/>
</svg>
