<svg width="20" height="20" viewBox="0 0 20 20" fill="none" xmlns="http://www.w3.org/2000/svg">
<path d="M7.89166 12.7333C7.73333 12.7333 7.575 12.675 7.45 12.55C6.76666 11.8667 6.39166 10.9583 6.39166 10C6.39166 8.00833 8.00833 6.39166 10 6.39166C10.9583 6.39166 11.8667 6.76666 12.55 7.45C12.6667 7.56666 12.7333 7.725 12.7333 7.89166C12.7333 8.05833 12.6667 8.21666 12.55 8.33333L8.33333 12.55C8.20833 12.675 8.05 12.7333 7.89166 12.7333ZM10 7.64166C8.7 7.64166 7.64166 8.7 7.64166 10C7.64166 10.4167 7.75 10.8167 7.95 11.1667L11.1667 7.95C10.8167 7.75 10.4167 7.64166 10 7.64166Z" fill="#7F909F"/>
<path d="M4.66666 15.425C4.52499 15.425 4.37499 15.375 4.25833 15.275C3.36666 14.5167 2.56666 13.5833 1.88333 12.5C0.999992 11.125 0.999992 8.88334 1.88333 7.5C3.91666 4.31667 6.87499 2.48334 9.99999 2.48334C11.8333 2.48334 13.6417 3.11667 15.225 4.30834C15.5 4.51667 15.5583 4.90834 15.35 5.18334C15.1417 5.45834 14.75 5.51667 14.475 5.30834C13.1083 4.275 11.5583 3.73334 9.99999 3.73334C7.30833 3.73334 4.73333 5.35 2.93333 8.175C2.30833 9.15 2.30833 10.85 2.93333 11.825C3.55833 12.8 4.27499 13.6417 5.06666 14.325C5.32499 14.55 5.35833 14.9417 5.13333 15.2083C5.01666 15.35 4.84166 15.425 4.66666 15.425Z" fill="#7F909F"/>
<path d="M10 17.5167C8.89168 17.5167 7.80834 17.2917 6.76668 16.85C6.45001 16.7167 6.30001 16.35 6.43334 16.0333C6.56668 15.7167 6.93334 15.5667 7.25001 15.7C8.13334 16.075 9.05834 16.2667 9.99168 16.2667C12.6833 16.2667 15.2583 14.65 17.0583 11.825C17.6833 10.85 17.6833 9.14999 17.0583 8.17499C16.8 7.76666 16.5167 7.37499 16.2167 7.00833C16 6.74166 16.0417 6.34999 16.3083 6.12499C16.575 5.90833 16.9667 5.94166 17.1917 6.21666C17.5167 6.61666 17.8333 7.04999 18.1167 7.49999C19 8.87499 19 11.1167 18.1167 12.5C16.0833 15.6833 13.125 17.5167 10 17.5167Z" fill="#7F909F"/>
<path d="M10.575 13.5583C10.2834 13.5583 10.0167 13.35 9.95836 13.05C9.89169 12.7083 10.1167 12.3833 10.4584 12.325C11.375 12.1583 12.1417 11.3917 12.3084 10.475C12.375 10.1333 12.7 9.91666 13.0417 9.975C13.3834 10.0417 13.6084 10.3667 13.5417 10.7083C13.275 12.15 12.125 13.2917 10.6917 13.5583C10.65 13.55 10.6167 13.5583 10.575 13.5583Z" fill="#7F909F"/>
<path d="M1.66668 18.9583C1.50835 18.9583 1.35001 18.9 1.22501 18.775C0.983346 18.5333 0.983346 18.1333 1.22501 17.8917L7.45001 11.6667C7.69168 11.425 8.09168 11.425 8.33335 11.6667C8.57501 11.9083 8.57501 12.3083 8.33335 12.55L2.10835 18.775C1.98335 18.9 1.82501 18.9583 1.66668 18.9583Z" fill="#7F909F"/>
<path d="M12.1083 8.51666C11.95 8.51666 11.7917 8.45833 11.6667 8.33333C11.425 8.09166 11.425 7.69166 11.6667 7.45L17.8917 1.225C18.1333 0.98333 18.5333 0.98333 18.775 1.225C19.0167 1.46666 19.0167 1.86666 18.775 2.10833L12.55 8.33333C12.425 8.45833 12.2667 8.51666 12.1083 8.51666Z" fill="#7F909F"/>
</svg>
