<svg width="20" height="21" viewBox="0 0 20 21" fill="none" xmlns="http://www.w3.org/2000/svg">
<path d="M15 9.45834C14.6583 9.45834 14.375 9.175 14.375 8.83334V7.16667C14.375 4.54167 13.6333 2.79167 10 2.79167C6.36667 2.79167 5.625 4.54167 5.625 7.16667V8.83334C5.625 9.175 5.34167 9.45834 5 9.45834C4.65833 9.45834 4.375 9.175 4.375 8.83334V7.16667C4.375 4.75001 4.95833 1.54167 10 1.54167C15.0417 1.54167 15.625 4.75001 15.625 7.16667V8.83334C15.625 9.175 15.3417 9.45834 15 9.45834Z" fill="#7653F6"/>
<path d="M14.1666 19.4583H5.83329C2.15829 19.4583 1.04163 18.3417 1.04163 14.6667V13C1.04163 9.325 2.15829 8.20833 5.83329 8.20833H14.1666C17.8416 8.20833 18.9583 9.325 18.9583 13V14.6667C18.9583 18.3417 17.8416 19.4583 14.1666 19.4583ZM5.83329 9.45833C2.84996 9.45833 2.29163 10.025 2.29163 13V14.6667C2.29163 17.6417 2.84996 18.2083 5.83329 18.2083H14.1666C17.15 18.2083 17.7083 17.6417 17.7083 14.6667V13C17.7083 10.025 17.15 9.45833 14.1666 9.45833H5.83329Z" fill="#7653F6"/>
<path d="M6.66671 14.6667C6.55837 14.6667 6.45004 14.6417 6.35004 14.6C6.2417 14.5583 6.15838 14.5 6.07505 14.425C5.92505 14.2667 5.83337 14.0583 5.83337 13.8333C5.83337 13.725 5.85836 13.6167 5.90003 13.5167C5.9417 13.4083 6.00005 13.325 6.07505 13.2417C6.15838 13.1667 6.2417 13.1083 6.35004 13.0667C6.65004 12.9333 7.02503 13.0083 7.25837 13.2417C7.33337 13.325 7.39172 13.4167 7.43339 13.5167C7.47505 13.6167 7.50004 13.725 7.50004 13.8333C7.50004 14.05 7.40837 14.2667 7.25837 14.425C7.10003 14.575 6.88337 14.6667 6.66671 14.6667Z" fill="#7653F6"/>
<path d="M9.99996 14.6667C9.78329 14.6667 9.56663 14.575 9.4083 14.425C9.2583 14.2667 9.16663 14.0584 9.16663 13.8334C9.16663 13.725 9.18328 13.6167 9.23328 13.5167C9.27495 13.4167 9.3333 13.325 9.4083 13.2417C9.59997 13.05 9.89163 12.9583 10.1583 13.0167C10.2166 13.025 10.2666 13.0417 10.3166 13.0667C10.3666 13.0833 10.4166 13.1084 10.4666 13.1417C10.5083 13.1667 10.55 13.2084 10.5916 13.2417C10.6666 13.325 10.725 13.4167 10.7666 13.5167C10.8083 13.6167 10.8333 13.725 10.8333 13.8334C10.8333 14.0584 10.7416 14.2667 10.5916 14.425C10.55 14.4584 10.5083 14.4917 10.4666 14.525C10.4166 14.5583 10.3666 14.5834 10.3166 14.6C10.2666 14.625 10.2166 14.6417 10.1583 14.65C10.1083 14.6584 10.05 14.6667 9.99996 14.6667Z" fill="#7653F6"/>
<path d="M13.3333 14.6667C13.1083 14.6667 12.9 14.575 12.7417 14.425C12.6667 14.3417 12.6083 14.25 12.5667 14.15C12.525 14.05 12.5 13.9417 12.5 13.8334C12.5 13.6167 12.5917 13.4 12.7417 13.2417C12.7833 13.2084 12.825 13.175 12.8667 13.1417C12.9167 13.1084 12.9667 13.0833 13.0167 13.0667C13.0667 13.0417 13.1167 13.025 13.1667 13.0167C13.4417 12.9583 13.725 13.05 13.925 13.2417C14.075 13.4 14.1667 13.6084 14.1667 13.8334C14.1667 13.9417 14.1417 14.05 14.1 14.15C14.0583 14.2584 14 14.3417 13.925 14.425C13.7667 14.575 13.55 14.6667 13.3333 14.6667Z" fill="#7653F6"/>
</svg>
